<?xml version="1.0" standalone="no"?>
<!DOCTYPE svg PUBLIC "-//W3C//DTD SVG 20010904//EN"
 "http://www.w3.org/TR/2001/REC-SVG-20010904/DTD/svg10.dtd">
<svg version="1.0" xmlns="http://www.w3.org/2000/svg"
 width="444.000000pt" height="444.000000pt" viewBox="0 0 444.000000 444.000000"
 preserveAspectRatio="xMidYMid meet">
<metadata>
Created by potrace 1.11, written by Peter Selinger 2001-2013
</metadata>
<g transform="translate(0.000000,444.000000) scale(0.100000,-0.100000)"
fill="#000000" stroke="none">
<path d="M0 2220 l0 -2220 66 0 67 0 -7 78 c-14 177 -19 704 -7 879 12 173 41
436 61 558 30 178 83 438 116 565 83 321 132 387 243 331 67 -35 127 -120 167
-238 43 -125 54 -324 34 -620 -5 -81 -16 -272 -25 -423 -30 -548 -46 -828 -55
-974 -5 -83 -7 -152 -4 -155 15 -15 22 40 33 252 6 128 16 304 21 392 5 88 16
288 25 445 8 157 20 357 25 445 21 342 8 529 -45 672 -32 84 -90 170 -137 202
-20 14 -37 29 -38 32 0 4 28 12 62 19 88 17 187 54 311 116 l109 55 -7 -133
c-3 -73 -10 -209 -15 -303 -6 -93 -14 -280 -20 -415 -6 -135 -17 -402 -25
-595 -25 -570 -45 -1066 -45 -1127 l0 -58 75 0 74 0 4 87 3 88 2 -87 2 -88 45
0 c54 0 50 -33 30 302 -28 468 -47 1259 -31 1275 3 4 6 -7 6 -24 0 -78 83
-510 151 -792 56 -228 215 -731 239 -755 21 -21 19 4 -4 65 -44 119 -125 368
-128 396 -3 25 1 28 27 31 17 2 97 14 180 27 82 14 153 21 157 17 3 -4 16 -65
28 -137 11 -72 23 -143 26 -159 4 -18 2 -26 -4 -22 -5 3 -13 -1 -16 -10 -3 -8
-11 -12 -16 -9 -8 5 -7 11 1 21 9 10 9 14 0 14 -18 0 -25 -29 -11 -45 11 -14
15 -14 31 1 17 15 18 15 23 -7 3 -13 8 -53 11 -89 5 -50 4 -62 -6 -53 -6 6
-18 9 -25 6 -16 -6 -19 -43 -4 -43 5 0 7 7 4 15 -9 22 12 18 35 -6 27 -29 63
-22 73 16 70 263 129 702 149 1129 14 285 2 630 -32 915 -10 90 -18 166 -16
168 5 4 43 -177 67 -322 48 -283 65 -717 40 -1000 -27 -298 -101 -676 -174
-883 -12 -33 -12 -42 -2 -42 7 0 20 26 30 57 28 88 106 405 106 431 0 28 2 28
109 -5 85 -26 88 -28 68 -43 -14 -12 -18 -23 -13 -38 10 -30 24 -28 18 3 -3
18 0 25 12 25 9 0 16 5 16 10 0 6 7 10 15 10 12 0 14 -9 9 -42 -11 -85 -35
-215 -55 -305 -19 -86 -22 -92 -40 -83 -24 13 -24 26 -2 39 10 5 15 13 11 17
-11 11 -38 -16 -38 -37 0 -17 34 -39 59 -39 11 0 70 250 72 307 1 21 8 -7 15
-62 8 -55 19 -133 25 -173 l12 -72 193 0 194 0 0 36 0 36 80 -4 c44 -2 80 -4
80 -6 0 -1 -14 -16 -30 -32 l-31 -30 338 0 338 0 42 108 c51 134 95 278 124
407 19 85 31 116 87 209 l65 109 61 -6 c74 -7 129 -25 123 -41 -3 -6 6 -12 20
-13 45 -2 46 -5 12 -218 -20 -128 -76 -335 -132 -487 l-25 -68 274 0 274 0 0
2220 0 2220 -2220 0 -2220 0 0 -2220z m2059 1595 c-5 -4 -430 -153 -609 -212
-126 -42 -242 -49 -298 -20 -18 10 -30 22 -27 27 10 16 88 58 130 69 74 20
611 126 680 134 48 6 129 7 124 2z m174 -36 c47 -24 107 -68 107 -78 0 -4 -42
-12 -92 -18 -127 -15 -218 -47 -458 -162 -221 -106 -323 -144 -440 -161 -103
-15 -169 -5 -214 32 -50 41 -49 63 2 40 28 -13 67 -17 167 -17 152 0 209 14
421 105 157 67 446 243 437 266 -8 21 21 18 70 -7z m-73 -294 c13 -14 21 -25
18 -25 -2 0 -15 11 -28 25 -13 14 -21 25 -18 25 2 0 15 -11 28 -25z m-307 -58
c-3 -6 -1 -7 5 -3 17 10 143 -77 170 -117 19 -28 62 -130 62 -146 0 -3 -10 5
-22 16 -66 60 -177 77 -252 37 -55 -28 -58 -49 -4 -24 52 24 128 26 171 4 39
-20 98 -74 91 -85 -2 -4 0 -10 6 -14 6 -4 11 7 11 27 l2 33 6 -35 c10 -52 2
-68 -20 -39 -9 13 -15 28 -12 33 4 5 -1 7 -10 3 -9 -3 -31 1 -49 11 -67 33
-193 25 -233 -15 -20 -20 -19 -27 11 -63 72 -85 211 -93 291 -18 13 12 23 17
23 12 0 -26 -73 -233 -102 -287 -36 -68 -107 -146 -157 -171 -49 -26 -192 -40
-252 -26 -61 15 -155 74 -198 126 -81 97 -132 250 -145 435 -4 46 -9 111 -12
145 l-5 61 89 7 c49 3 104 11 123 16 19 6 55 10 80 10 67 0 168 34 236 80 l58
39 22 -21 c12 -12 20 -25 16 -31z m444 -19 c-3 -7 -5 -2 -5 12 0 14 2 19 5 13
2 -7 2 -19 0 -25z m830 -44 c-3 -3 -12 -4 -19 -1 -8 3 -5 6 6 6 11 1 17 -2 13
-5z m3 -44 c0 -4 -11 -5 -25 -2 -14 2 -25 8 -25 12 0 4 11 5 25 2 14 -2 25 -8
25 -12z m-15 -33 c16 -5 15 -5 -4 -4 -14 1 -26 9 -28 17 -3 10 -2 11 4 4 4 -7
17 -14 28 -17z m-11 -33 c20 -8 21 -54 2 -54 -8 0 -18 4 -21 10 -3 6 1 7 9 4
22 -9 21 22 -1 35 -20 12 -13 14 11 5z m-1894 -34 c0 -11 -9 -29 -20 -40 -11
-11 -20 -31 -20 -45 0 -32 36 -105 52 -105 6 0 9 -3 5 -6 -3 -3 -1 -18 4 -32
l10 -26 -22 19 c-61 54 -90 194 -49 235 11 11 25 20 30 20 6 0 10 -9 10 -20z
m1904 -59 c3 -5 -3 -11 -14 -14 -13 -3 -20 0 -20 9 0 15 26 19 34 5z m-1894
-49 c0 -28 -3 -33 -10 -22 -13 20 -13 73 0 65 6 -3 10 -23 10 -43z m-785 -2
c3 -6 -1 -7 -9 -4 -18 7 -21 14 -7 14 6 0 13 -4 16 -10z m1515 1 c0 -6 -4 -13
-10 -16 -5 -3 -10 -26 -10 -51 0 -50 -10 -54 -63 -28 -36 18 -87 63 -87 76 0
16 44 27 108 27 34 1 62 -3 62 -8z m1152 2 c-6 -2 -10 -9 -6 -14 3 -5 1 -9 -5
-9 -6 0 -20 -10 -31 -22 -18 -20 -20 -20 -14 -4 6 15 4 17 -7 11 -12 -7 -11
-6 1 9 14 18 46 35 65 35 6 -1 4 -3 -3 -6z m-908 -49 c5 -14 4 -15 -9 -4 -17
14 -19 20 -6 20 5 0 12 -7 15 -16z m922 -6 c5 -7 3 -8 -6 -3 -15 9 -30 -12
-23 -32 3 -8 12 -12 19 -9 8 3 14 1 14 -4 0 -15 -26 -12 -39 4 -9 11 -10 20
-1 35 12 23 25 27 36 9z m-946 -17 c5 -11 10 -30 11 -43 0 -22 1 -22 9 -3 6
13 9 15 9 5 0 -8 -4 -22 -9 -30 -9 -13 -10 -13 -10 0 -1 17 -59 -48 -60 -66 0
-12 -30 -41 -30 -29 0 4 18 32 40 64 46 65 48 76 20 93 -24 15 -26 28 -5 28 8
0 19 -9 25 -19z m-1720 5 c0 -2 -8 -10 -17 -17 -16 -13 -17 -12 -4 4 13 16 21
21 21 13z m2595 -28 c12 -26 13 -29 1 -15 -10 14 -15 15 -19 5 -3 -7 -6 -1 -6
15 -1 35 5 34 24 -5z m-2670 4 c-3 -3 -11 0 -18 7 -9 10 -8 11 6 5 10 -3 15
-9 12 -12z m1755 -42 c-16 -31 -23 -19 -9 16 6 16 13 24 16 17 2 -7 -1 -22 -7
-33z m50 -33 c0 -2 -12 -14 -27 -28 l-28 -24 24 28 c23 25 31 32 31 24z m897
-56 c10 1 26 -1 35 -5 9 -4 25 -3 37 3 11 6 29 11 41 11 12 0 24 9 28 21 8 20
9 20 23 3 12 -16 12 -17 -1 -9 -8 4 -12 4 -7 0 4 -5 13 -10 21 -11 7 -1 35
-17 62 -37 65 -46 117 -72 189 -92 33 -10 64 -24 68 -31 5 -8 12 -12 16 -10 4
3 2 -22 -3 -55 -7 -45 -14 -59 -27 -59 -23 0 -41 24 -33 44 3 9 1 16 -5 16 -6
0 -11 -4 -11 -10 0 -5 -4 -10 -10 -10 -5 0 -10 10 -10 21 0 19 -2 20 -16 8
-14 -11 -18 -11 -28 2 -6 8 -19 13 -30 11 -10 -2 -22 1 -25 7 -5 7 -17 8 -38
2 -23 -7 -33 -6 -37 4 -2 7 -2 16 1 19 13 13 95 5 145 -14 56 -21 73 -19 42 5
-51 40 -80 50 -154 50 -58 0 -84 -5 -117 -23 -47 -25 -60 -39 -45 -54 7 -7 17
-6 32 2 12 6 25 9 28 5 8 -8 -19 -25 -30 -19 -4 3 -8 0 -8 -6 0 -7 -8 -9 -21
-5 -21 7 -22 5 -16 -31 8 -48 50 -89 109 -105 79 -21 219 6 234 45 3 8 16 13
30 12 17 -1 23 -5 18 -16 -3 -8 -10 -36 -15 -62 -6 -28 -22 -59 -40 -78 -24
-24 -29 -38 -27 -69 3 -65 -77 -183 -161 -235 -135 -85 -332 -73 -470 28 -80
59 -157 171 -166 240 -3 20 -11 47 -19 59 -19 29 -36 125 -36 202 l0 61 72 35
c81 38 233 136 262 168 l19 21 38 -31 c21 -17 47 -29 56 -28z m108 39 c3 -5 1
-10 -4 -10 -6 0 -11 5 -11 10 0 6 2 10 4 10 3 0 8 -4 11 -10z m-40 -20 c-3 -5
-12 -10 -18 -10 -7 0 -6 4 3 10 19 12 23 12 15 0z m-1874 -47 c6 -21 20 -55
31 -75 16 -33 48 -169 48 -205 0 -19 -28 -16 -39 4 -5 10 -12 15 -15 12 -10
-9 18 -40 39 -43 17 -2 23 -21 44 -135 13 -72 21 -134 18 -137 -7 -8 -197 -53
-197 -47 0 2 5 14 11 25 8 14 8 23 0 31 -8 8 -11 5 -11 -11 0 -27 -29 -44 -53
-31 -11 7 -17 6 -17 -1 0 -5 5 -10 10 -10 6 0 10 -4 10 -10 0 -5 -15 -10 -34
-10 l-33 0 -7 61 c-10 99 -7 377 5 446 6 35 21 78 33 95 28 42 82 78 117 78
23 0 29 -6 40 -37z m2412 -111 c9 -10 20 -32 23 -49 8 -40 -31 -115 -88 -169
l-41 -39 6 35 c14 79 44 218 51 228 10 17 31 15 49 -6z m-1120 -24 c-31 -15
-29 -32 2 -26 15 3 25 1 25 -6 0 -7 -12 -12 -27 -11 -22 0 -29 -5 -31 -23 -4
-26 16 -82 28 -82 4 0 11 -10 15 -22 6 -21 8 -21 12 -4 3 10 1 21 -4 25 -6 3
-12 15 -15 26 -3 11 -9 28 -13 37 -5 13 -2 15 13 11 14 -3 22 -17 26 -46 4
-23 9 -57 13 -76 l6 -34 -35 39 c-43 48 -68 95 -68 129 0 27 40 75 62 74 7 0
3 -5 -9 -11z m737 -13 c0 -8 -6 -15 -14 -15 -20 0 -29 17 -14 23 22 9 28 7 28
-8z m-1789 -157 c81 -41 159 -54 233 -39 74 15 100 29 170 86 l54 44 -29 -72
c-16 -40 -47 -102 -69 -138 -37 -63 -41 -66 -97 -82 -79 -23 -187 -37 -277
-37 -62 0 -76 3 -80 18 -5 15 -66 338 -66 347 0 2 24 -20 53 -48 29 -29 78
-64 108 -79z m741 -91 c136 -100 290 -180 420 -217 l47 -14 -22 -30 c-72 -101
-335 -338 -348 -313 -3 6 -13 48 -22 92 -21 105 -100 341 -145 430 -43 86
-125 215 -152 240 -11 10 -20 21 -20 24 0 3 38 -31 85 -76 46 -45 117 -106
157 -136z m1207 185 c50 -23 53 -26 35 -39 -25 -18 -110 -43 -147 -43 -24 0
-28 3 -21 18 4 9 9 36 12 59 4 41 5 42 35 36 18 -3 56 -17 86 -31z m-1396 -84
c53 -81 117 -199 117 -216 0 -11 -45 -32 -67 -32 -9 0 -21 7 -28 17 -7 9 -19
14 -29 10 -20 -8 -21 -25 -2 -23 27 2 21 -18 -7 -28 -33 -12 -42 -3 -51 57 -5
27 -3 43 6 48 16 10 31 0 24 -17 -3 -8 -1 -14 3 -14 5 0 11 6 14 14 8 20 -18
39 -41 31 -16 -4 -22 1 -30 24 -9 27 -8 30 11 33 29 4 31 51 2 57 -17 3 -17 1
-6 -12 14 -18 7 -37 -13 -37 -25 0 -25 41 0 93 13 29 24 58 24 65 0 28 22 7
73 -70z m547 -143 c0 -14 -4 -25 -9 -25 -5 0 -7 10 -3 22 4 17 2 20 -12 15
-10 -4 -15 -3 -11 3 12 20 35 10 35 -15z m970 -18 c0 -5 -4 -5 -10 -2 -6 3 -7
-1 -4 -9 4 -11 0 -16 -10 -16 -9 0 -16 4 -16 9 0 5 -3 16 -6 24 -3 10 1 17 13
19 17 4 33 -8 33 -25z m-1602 -229 c62 -493 67 -985 16 -1427 -8 -69 -16 -126
-18 -128 -2 -2 -9 34 -15 79 -54 372 -152 775 -282 1159 l-39 117 81 78 c87
85 156 171 198 246 14 26 29 48 32 48 3 0 15 -78 27 -172z m204 114 c-16 -12
-134 -52 -153 -52 -5 0 -9 6 -9 13 0 17 163 76 172 62 4 -5 0 -16 -10 -23z
m1397 18 c32 0 42 -16 16 -26 -8 -4 -12 -10 -9 -16 3 -5 11 -5 19 2 10 9 16 6
25 -10 17 -31 8 -63 -20 -77 -19 -10 -21 -13 -7 -13 10 0 20 -7 23 -15 8 -21
-16 -47 -38 -42 -22 6 -24 -11 -3 -19 8 -4 15 -13 15 -21 0 -23 -98 67 -125
115 -27 47 -28 37 20 117 13 21 19 23 35 15 10 -5 32 -10 49 -10z m-2169 -75
c0 -8 -4 -15 -8 -15 -4 0 -74 -13 -155 -30 -81 -16 -152 -30 -157 -30 -6 0
-10 9 -10 20 0 15 7 20 28 21 15 0 86 11 157 23 72 13 133 24 138 25 4 0 7 -6
7 -14z m274 -46 c-46 -50 -188 -160 -195 -151 -10 11 -49 133 -49 154 0 15 12
18 98 21 53 1 115 4 136 5 l40 2 -30 -31z m1132 -77 c-18 -18 -50 -8 -42 13 3
8 1 15 -5 15 -6 0 -9 -10 -7 -22 3 -26 41 -37 62 -18 11 8 17 1 30 -36 18 -53
22 -89 7 -66 -11 17 -43 12 -49 -8 -5 -13 -3 -13 11 -1 15 11 18 10 28 -15 10
-27 12 -28 19 -9 20 49 9 -164 -14 -275 -67 -316 -79 -361 -95 -356 -9 3 -76
17 -149 31 -73 15 -148 33 -167 41 l-34 14 34 97 c42 126 109 307 130 356 40
94 148 323 158 336 9 11 20 5 55 -34 38 -43 41 -50 28 -63z m644 46 c0 -23
-16 -23 -30 0 -10 15 -10 15 -8 -3 2 -13 12 -21 30 -23 23 -3 29 -11 43 -55
26 -80 31 -314 11 -462 -20 -149 -47 -326 -51 -341 -2 -8 -22 -3 -56 13 -29
14 -69 28 -90 30 -26 4 -44 13 -54 29 -8 13 -21 24 -27 24 -6 0 -3 -9 7 -20
18 -20 17 -20 -38 -20 -36 0 -57 4 -57 11 0 16 113 474 156 632 35 127 38 133
88 183 45 45 53 50 64 36 6 -9 12 -24 12 -34z m725 -54 c3 -20 3 -66 -1 -102
l-7 -65 -18 34 c-22 41 -24 64 -3 29 l15 -25 -4 32 c-2 18 1 34 7 36 6 2 6 6
-1 10 -6 4 -19 0 -28 -9 -15 -16 -16 -15 -13 12 2 18 8 28 17 26 9 -2 11 3 7
13 -4 10 -2 14 6 9 7 -5 9 1 6 19 -3 15 -2 24 2 22 4 -3 11 -21 15 -41z m-48
11 c-7 -13 -14 -20 -15 -14 -2 5 2 16 8 24 18 21 20 18 7 -10z m-1490 -31
c-13 -27 -23 -40 -25 -31 -3 13 35 77 45 77 1 0 -7 -21 -20 -46z m403 -35 c81
-12 168 -1 222 26 17 8 32 15 33 15 2 0 -5 -24 -16 -52 -10 -29 -20 -65 -23
-79 -5 -22 -18 -31 -76 -53 -40 -14 -92 -26 -118 -26 -42 0 -147 22 -159 33
-2 3 -9 36 -15 73 -5 38 -16 81 -24 96 -8 15 -14 29 -14 31 0 2 26 -9 58 -25
35 -17 89 -33 132 -39z m-1859 38 c-10 -9 -11 -8 -5 6 3 10 9 15 12 12 3 -3 0
-11 -7 -18z m2355 -42 c-9 -34 -12 -31 -19 19 -6 36 -5 38 10 24 11 -11 13
-25 9 -43z m808 -4 l-39 -36 33 35 c17 20 32 42 33 50 0 12 2 12 6 1 3 -7 -11
-29 -33 -50z m-2914 14 c0 -8 -3 -16 -7 -18 -5 -3 -8 5 -8 18 0 13 3 21 8 18
4 -2 7 -10 7 -18z m2879 -12 c-12 -21 -29 -45 -37 -53 -7 -8 0 9 18 38 17 28
34 52 37 52 2 0 -5 -17 -18 -37z m-2039 -2 c-15 -8 -154 -31 -190 -31 -11 0
-20 7 -20 15 0 10 17 15 68 18 138 7 157 7 142 -2z m320 -34 c0 -27 -61 -178
-70 -172 -3 2 -20 26 -37 53 l-30 49 61 51 c63 52 76 56 76 19z m1043 -24 l55
-52 -74 -74 -74 -73 0 95 c0 88 15 165 31 159 4 -2 32 -26 62 -55z m-1346 20
c-2 -5 -7 -16 -11 -27 -4 -13 -10 -15 -19 -8 -16 14 -46 10 -57 -7 -6 -10 -10
-9 -18 5 -12 22 -25 14 -16 -10 8 -21 32 -21 56 1 12 11 18 12 18 3 0 -8 10
-11 30 -8 33 5 33 5 49 -86 14 -74 14 -73 -1 -58 -17 17 -45 15 -52 -4 -9 -24
2 -31 17 -11 10 13 15 14 28 4 24 -18 27 -36 40 -226 11 -163 3 -469 -17 -662
l-6 -56 -51 4 c-29 2 -62 6 -75 9 -21 4 -21 6 -7 20 8 8 15 19 15 24 0 17 -67
60 -84 54 -14 -6 -16 -1 -10 37 4 24 8 45 9 47 7 8 35 -33 31 -44 -3 -8 -1
-14 5 -14 21 0 4 55 -20 65 -23 10 -23 11 -17 120 7 127 -9 451 -29 610 -19
139 -19 132 9 139 26 6 41 32 25 41 -5 4 -12 -1 -15 -9 -9 -24 -31 -19 -36 8
-5 24 -2 25 56 30 34 3 75 8 91 9 57 7 66 7 62 0z m-739 -183 c164 -413 247
-755 287 -1180 16 -164 19 -478 6 -545 l-8 -40 -7 60 c-26 210 -73 456 -255
1355 -114 558 -115 583 -23 350z m-84 81 c5 -8 -108 -42 -136 -40 -14 0 99 46
119 48 6 0 14 -3 17 -8z m1480 -26 c20 -8 36 -17 36 -19 0 -18 -25 -66 -37
-70 -11 -5 -13 -2 -8 11 14 34 17 63 7 63 -6 0 -16 -17 -22 -37 -7 -21 -17
-42 -23 -48 -7 -7 -8 -4 -3 8 3 10 6 39 6 63 0 24 2 44 4 44 2 0 20 -7 40 -15z
m-1648 -22 c-1 -1 -44 -10 -95 -18 -62 -11 -97 -13 -103 -7 -21 21 3 27 100
27 55 0 99 -1 98 -2z m269 -457 c51 -251 88 -459 84 -462 -15 -9 -295 -63
-344 -66 l-50 -3 -22 100 c-47 208 -109 582 -128 772 l-6 62 48 7 c26 3 84 12
128 19 67 11 83 11 96 -1 22 -20 36 -17 61 11 12 14 26 24 32 22 6 -2 51 -209
101 -461z m1459 420 c-3 -14 -12 -26 -20 -26 -17 0 -17 10 -4 46 14 35 34 18
24 -20z m126 35 c0 -10 -28 -41 -36 -41 -3 0 0 31 5 48 2 7 31 1 31 -7z m548
-20 c-79 -99 -174 -209 -177 -206 -3 4 28 42 150 188 43 51 66 66 27 18z
m-2288 9 c0 -5 -5 -10 -11 -10 -5 0 -7 5 -4 10 3 6 8 10 11 10 2 0 4 -4 4 -10z
m1672 -15 c-2 -14 -11 -25 -18 -25 -15 0 -17 10 -8 34 10 27 32 19 26 -9z
m1067 22 c-2 -1 -15 -11 -29 -22 l-25 -20 19 23 c11 12 24 22 29 22 6 0 8 -1
6 -3z m97 -64 c15 -20 23 -33 16 -29 -13 8 -56 66 -49 66 3 0 17 -17 33 -37z
m-1346 -72 c0 -6 -4 -13 -10 -16 -5 -3 -10 1 -10 9 0 9 5 16 10 16 6 0 10 -4
10 -9z m290 -12 c0 -6 -4 -7 -10 -4 -5 3 -10 11 -10 16 0 6 5 7 10 4 6 -3 10
-11 10 -16z m-66 -4 c-4 -8 -8 -15 -10 -15 -2 0 -4 7 -4 15 0 8 4 15 10 15 5
0 7 -7 4 -15z m-204 -5 c0 -5 -5 -10 -11 -10 -5 0 -7 5 -4 10 3 6 8 10 11 10
2 0 4 -4 4 -10z m54 -5 c-4 -8 -10 -12 -15 -9 -14 8 -10 24 6 24 9 0 12 -6 9
-15z m81 -13 c-4 -20 0 -34 15 -49 23 -25 50 -20 50 9 0 18 1 18 16 4 8 -9 20
-13 26 -10 17 10 -2 -60 -19 -71 -8 -5 -72 -50 -141 -98 l-127 -88 -8 63 c-8
58 2 260 11 211 8 -48 50 -52 70 -7 14 29 28 31 35 3 4 -15 12 -20 29 -17 20
3 23 8 21 41 -2 28 1 37 13 37 12 0 14 -7 9 -28z m-135 -32 c0 -5 -4 -10 -10
-10 -5 0 -10 5 -10 10 0 6 5 10 10 10 6 0 10 -4 10 -10z m1014 -125 c-14 -19
-29 -35 -31 -35 -5 0 7 18 36 53 26 31 23 18 -5 -18z m-44 -59 c0 -2 -8 -10
-17 -17 -16 -13 -17 -12 -4 4 13 16 21 21 21 13z m-1410 -84 c73 -22 223 -52
258 -52 15 0 22 -6 22 -20 0 -29 -26 -35 -79 -20 -79 22 -95 24 -87 11 14 -22
-111 37 -133 63 -8 9 -18 16 -24 16 -18 0 36 -51 76 -71 20 -11 37 -21 37 -24
0 -8 -55 16 -107 48 -40 24 -53 37 -53 55 0 15 5 22 13 18 6 -2 41 -14 77 -24z
m802 -73 c22 -9 22 -9 -2 -4 -14 2 -56 5 -93 5 -48 0 -66 3 -61 11 8 13 119 5
156 -12z m-282 -86 c11 3 18 1 14 -4 -3 -5 -11 -9 -18 -9 -8 0 -19 -7 -26 -15
-7 -8 -20 -15 -30 -15 -10 0 -23 7 -30 15 -7 8 -22 16 -34 16 -20 1 -20 2 -1
6 11 3 28 11 39 19 16 11 22 10 42 -3 13 -8 33 -13 44 -10z m-144 -33 c5 -13
6 -13 14 0 7 10 10 11 10 2 0 -7 15 -22 33 -33 17 -12 24 -18 14 -15 -10 3
-24 6 -31 6 -21 0 -56 40 -55 63 1 21 2 19 15 -23z m473 -4 c-1 -20 -2 -20 -6
-1 -3 11 -10 27 -17 35 -10 13 -9 13 7 1 9 -7 16 -23 16 -35z m-1522 -18 c-3
-8 -6 -5 -6 6 -1 11 2 17 5 13 3 -3 4 -12 1 -19z m870 -8 c1 -24 1 -24 -4 -2
-3 18 -10 23 -24 19 -11 -3 -16 -1 -13 4 11 19 39 4 41 -21z m548 9 c11 -16 1
-19 -13 -3 -7 8 -8 14 -3 14 5 0 13 -5 16 -11z m-555 -43 c0 -2 -7 -7 -16 -10
-8 -3 -12 -2 -9 4 6 10 25 14 25 6z m243 -19 c4 3 7 4 7 0 0 -17 -20 -14 -36
6 -19 22 -19 22 2 4 11 -9 24 -14 27 -10z m473 -5 c-17 -16 -18 -16 -5 5 7 12
15 20 18 17 3 -2 -3 -12 -13 -22z m-961 -11 c-6 -5 -25 10 -25 20 0 5 6 4 14
-3 8 -7 12 -15 11 -17z m135 -26 c-7 -8 -20 -15 -29 -14 -11 0 -9 3 7 9 13 6
22 19 23 32 1 18 2 19 6 5 3 -10 -1 -24 -7 -32z m599 22 c-2 -1 -13 -9 -24
-17 -19 -14 -19 -14 -6 3 7 9 18 17 24 17 6 0 8 -1 6 -3z m-156 -37 c-3 -12
-8 -19 -11 -16 -5 6 5 36 12 36 2 0 2 -9 -1 -20z m-605 -39 c3 -8 -1 -12 -9
-9 -7 2 -15 10 -17 17 -3 8 1 12 9 9 7 -2 15 -10 17 -17z m90 -70 c39 -14 92
-22 142 -23 86 -2 90 -5 74 -65 -8 -31 -43 -37 -55 -10 -8 21 -9 21 -6 -3 2
-20 7 -25 31 -25 l28 1 -5 -54 c-4 -39 -12 -58 -26 -69 -23 -15 -28 -57 -9
-69 8 -5 9 -2 5 9 -7 20 1 47 14 47 5 0 9 -84 9 -188 0 -183 -1 -189 -23 -210
-32 -30 -90 -52 -136 -52 -51 0 -201 47 -201 63 0 7 -5 51 -10 98 -8 67 -6
121 6 230 22 208 22 206 29 297 l7 82 32 -19 c17 -11 59 -29 94 -40z m305 34
c-3 -9 -8 -14 -10 -11 -3 3 -2 9 2 15 9 16 15 13 8 -4z m-202 -10 c25 -4 62
-2 82 3 33 9 37 8 37 -9 0 -17 -7 -19 -67 -18 -46 0 -81 7 -108 20 -27 13 -32
18 -15 15 14 -3 46 -8 71 -11z m-421 -22 c24 -21 25 -30 5 -50 -19 -18 -65
-10 -65 13 0 8 5 12 10 9 7 -4 9 2 4 19 -8 31 15 36 46 9z m915 7 c12 -5 14
-9 6 -9 -11 -1 -10 -5 5 -16 23 -17 14 -19 -21 -3 -14 6 -25 17 -25 25 0 15 6
15 35 3z m92 -31 c15 -6 71 -16 123 -24 l95 -13 -90 0 c-77 -1 -97 2 -135 23
-47 25 -43 33 7 14z m-1513 -26 c4 -9 3 -20 -1 -23 -7 -7 -301 -65 -362 -72
-19 -2 -26 3 -32 24 -8 31 -16 28 156 54 61 8 130 19 155 24 69 12 77 11 84
-7z m1420 2 c8 -8 20 -15 26 -15 17 0 1 -20 -24 -30 l-21 -9 22 0 c12 -1 28 8
36 19 13 19 16 19 83 5 38 -8 93 -15 122 -15 28 0 52 -2 52 -5 0 -12 -72 -500
-85 -575 -8 -47 -17 -110 -21 -142 l-5 -56 -44 43 c-23 24 -56 50 -71 58 -47
24 -125 36 -172 28 -23 -5 -44 -5 -47 -2 -4 8 35 290 66 466 11 66 25 148 31
183 11 64 23 75 52 47z m1258 -57 c-9 -32 -10 -31 -10 22 -1 46 1 52 10 33 8
-16 8 -32 0 -55z m-2104 10 c68 -10 82 -15 82 -30 0 -21 -17 -22 -127 -7 -85
11 -99 19 -89 44 4 12 13 15 29 11 12 -3 59 -11 105 -18z m-560 -94 c-3 -14
-5 -12 -10 9 -3 19 -2 25 4 19 6 -6 8 -18 6 -28z m-285 -9 c-3 -9 -8 -14 -10
-11 -3 3 -2 9 2 15 9 16 15 13 8 -4z m792 -4 c-3 -6 -11 -11 -16 -11 -5 0 -4
6 3 14 14 16 24 13 13 -3z m-751 -27 c3 -8 2 -12 -4 -9 -6 3 -10 10 -10 16 0
14 7 11 14 -7z m1399 1 c-3 -9 -8 -14 -10 -11 -3 3 -2 9 2 15 9 16 15 13 8 -4z
m-1183 1 c0 -2 -7 -7 -16 -10 -8 -3 -12 -2 -9 4 6 10 25 14 25 6z m1240 -42
c0 -6 -7 -17 -15 -24 -19 -16 -30 8 -21 46 7 25 8 26 21 8 8 -11 15 -24 15
-30z m-690 29 c-8 -3 -22 -11 -30 -17 -13 -10 -13 -9 -1 7 7 9 21 17 30 16 13
0 14 -1 1 -6z m2217 -55 c-2 -13 -4 -5 -4 17 -1 22 1 32 4 23 2 -10 2 -28 0
-40z m-1595 13 c2 -17 1 -28 -4 -25 -8 5 -12 54 -4 54 2 0 6 -13 8 -29z m1532
-50 c3 -19 5 -33 3 -30 -1 2 -11 15 -22 28 -11 14 -14 21 -6 16 10 -6 12 0 7
26 -4 23 -3 28 2 14 5 -11 12 -35 16 -54z m-3277 -23 c-2 -18 -4 -6 -4 27 0
33 2 48 4 33 2 -15 2 -42 0 -60z m278 34 c-3 -3 -11 0 -18 7 -9 10 -8 11 6 5
10 -3 15 -9 12 -12z m368 -11 c4 -16 -9 -21 -117 -44 -210 -45 -248 -50 -257
-35 -17 27 -8 36 44 43 47 5 232 37 282 48 37 8 43 7 48 -12z m530 -82 c34 -9
54 -39 25 -39 -18 0 -210 48 -215 54 -3 2 -2 13 2 25 6 19 7 19 78 -5 40 -14
89 -29 110 -35z m1873 34 c-8 -16 -26 -39 -41 -53 l-26 -25 11 30 c12 32 48
75 62 75 5 0 2 -12 -6 -27z m-491 -65 c-3 -18 -20 -84 -38 -147 -31 -108 -34
-114 -66 -128 -19 -8 -42 -12 -53 -10 -10 3 -16 1 -12 -4 3 -5 3 -9 0 -9 -2 0
-11 -3 -20 -6 -8 -3 31 71 87 165 56 94 103 170 105 171 2 0 1 -15 -3 -32z
m692 -4 c-3 -3 -12 -4 -19 -1 -8 3 -5 6 6 6 11 1 17 -2 13 -5z m-3260 -116
c-2 -18 -4 -6 -4 27 0 33 2 48 4 33 2 -15 2 -42 0 -60z m1612 -144 c-51 -61
-202 -80 -291 -36 -32 16 -48 30 -48 43 0 10 3 19 8 19 13 0 34 -17 31 -26 -1
-5 17 -17 42 -26 48 -18 119 -24 119 -9 0 5 18 12 40 16 22 4 54 17 72 29 34
23 50 17 27 -10z m11 -38 c0 -2 -8 -10 -17 -17 -16 -13 -17 -12 -4 4 13 16 21
21 21 13z m853 -14 c-4 -18 -94 -65 -148 -78 -16 -4 -46 -15 -66 -25 -35 -17
-36 -17 -34 3 1 12 10 25 21 29 31 12 229 88 231 89 0 0 -1 -8 -4 -18z m-406
-28 c48 -23 123 -95 123 -117 0 -5 -24 11 -52 37 -70 62 -141 96 -198 95 l-45
-1 58 -14 c32 -8 66 -19 75 -25 15 -9 14 -10 -3 -4 -11 4 -53 10 -92 13 -62 4
-73 7 -73 23 0 37 125 33 207 -7z m-697 -19 c0 -8 -4 -15 -10 -15 -5 0 -10 7
-10 15 0 8 5 15 10 15 6 0 10 -7 10 -15z m-5 -44 c-3 -6 -11 -11 -16 -11 -5 0
-4 6 3 14 14 16 24 13 13 -3z m105 -26 c0 -7 -8 -19 -17 -26 -17 -13 -17 -12
-4 4 13 16 13 22 1 40 -12 20 -12 21 3 8 10 -7 17 -19 17 -26z"/>
<path d="M1357 3296 c-40 -15 -67 -33 -67 -47 0 -4 19 1 43 11 81 37 164 22
234 -42 12 -11 28 -18 35 -16 9 3 -1 19 -27 45 -59 60 -138 77 -218 49z"/>
<path d="M2046 3236 c6 -15 4 -17 -6 -11 -9 6 -11 4 -5 -4 5 -9 10 -10 18 -2
8 8 7 14 -2 24 -10 10 -11 8 -5 -7z"/>
<path d="M1337 3219 c-89 -21 -99 -50 -39 -109 43 -44 105 -65 162 -55 39 7
130 58 130 73 0 15 -54 61 -90 76 -49 20 -118 26 -163 15z m96 -41 c-4 -13 -8
-40 -8 -60 0 -43 -13 -48 -68 -24 -42 18 -93 71 -77 81 23 14 66 23 113 24 46
1 48 0 40 -21z"/>
<path d="M1644 3063 c-20 -41 -28 -74 -28 -112 -1 -50 2 -56 26 -70 26 -15 29
-15 55 11 23 23 27 36 27 81 0 53 -28 147 -44 147 -5 0 -21 -26 -36 -57z m49
-63 c9 -71 -28 -127 -53 -80 -10 18 -7 36 11 93 24 75 31 73 42 -13z"/>
<path d="M2060 3000 c-9 -6 -10 -10 -3 -10 6 0 15 5 18 10 8 12 4 12 -15 0z"/>
<path d="M1530 2849 c0 -15 53 -49 94 -60 70 -19 186 10 186 46 0 19 -3 19
-50 -5 -53 -27 -122 -26 -182 4 -27 13 -48 20 -48 15z"/>
<path d="M3055 3090 c-3 -6 1 -7 9 -4 18 7 21 14 7 14 -6 0 -13 -4 -16 -10z"/>
<path d="M2832 2819 c-4 -4 -43 -25 -86 -48 -44 -22 -74 -41 -67 -41 7 0 9 -5
5 -12 -5 -7 7 0 26 16 35 29 98 61 113 58 4 -1 7 3 7 9 0 5 4 8 9 5 4 -3 16 0
25 7 16 12 16 13 -3 13 -12 0 -25 -3 -29 -7z"/>
<path d="M3367 2811 c12 -11 34 -23 50 -27 35 -9 30 -3 -27 25 -42 21 -44 22
-23 2z"/>
<path d="M2769 2760 c-37 -20 -69 -50 -51 -50 5 0 26 7 45 15 53 22 162 19
216 -5 24 -11 50 -20 58 -20 29 0 7 34 -36 57 -58 30 -177 32 -232 3z"/>
<path d="M3475 2759 c4 -5 16 -9 27 -9 26 0 19 9 -11 15 -12 2 -19 0 -16 -6z"/>
<path d="M3538 2743 c7 -3 16 -2 19 1 4 3 -2 6 -13 5 -11 0 -14 -3 -6 -6z"/>
<path d="M2646 2721 c-4 -7 -5 -15 -2 -18 9 -9 19 4 14 18 -4 11 -6 11 -12 0z"/>
<path d="M2827 2716 c-5 -13 -15 -17 -30 -14 -13 3 -29 -2 -36 -9 -10 -12 -16
-12 -29 -1 -13 11 -15 10 -9 -4 7 -21 -3 -23 -22 -5 -11 10 -12 8 -6 -11 6
-21 4 -23 -14 -17 -24 7 -30 -12 -6 -21 8 -3 32 -23 53 -44 75 -75 222 -82
294 -13 30 29 41 90 14 80 -17 -7 -39 16 -28 28 4 5 -1 5 -10 2 -24 -9 -48 2
-48 21 0 12 -3 13 -12 4 -17 -17 -38 -15 -38 3 0 8 -4 15 -10 15 -5 0 -10 -4
-10 -10 0 -14 -38 -12 -42 2 -3 7 -7 5 -11 -6z m151 -62 c28 -12 52 -27 52
-32 0 -12 -123 -52 -161 -52 -26 0 -30 3 -23 18 4 9 9 36 12 59 4 41 5 42 35
36 18 -3 56 -16 85 -29z"/>
<path d="M3097 2714 c-14 -14 -7 -35 11 -32 9 2 17 10 17 17 0 16 -18 25 -28
15z"/>
<path d="M3107 2602 c-24 -26 -41 -102 -33 -145 9 -46 34 -62 64 -41 18 13 22
25 22 75 0 51 -20 129 -33 129 -2 0 -11 -8 -20 -18z m18 -129 c-3 -13 -10 -23
-15 -23 -14 0 -12 73 2 107 l12 28 4 -44 c2 -25 1 -55 -3 -68z"/>
<path d="M2960 2391 c0 -19 71 -70 105 -77 52 -9 130 0 160 20 33 21 27 30 -9
16 -52 -19 -119 -12 -182 20 -63 32 -74 35 -74 21z"/>
<path d="M1119 2814 c-11 -13 -9 -14 14 -9 24 6 27 4 27 -16 0 -19 2 -21 9
-10 12 18 -4 51 -23 51 -8 0 -19 -7 -27 -16z"/>
<path d="M1190 2822 c0 -5 8 -9 18 -8 12 1 16 -5 14 -24 -2 -18 0 -22 9 -13
17 17 6 48 -19 51 -12 2 -22 -1 -22 -6z"/>
<path d="M1131 2738 c-1 -18 32 -33 49 -23 5 3 10 14 9 23 0 11 -3 12 -6 5 -2
-7 -13 -13 -23 -13 -10 0 -21 6 -23 13 -3 7 -6 6 -6 -5z"/>
<path d="M1280 2714 c0 -23 -3 -26 -25 -22 -30 6 -34 -8 -5 -17 12 -4 27 -1
35 5 17 14 20 46 5 55 -6 4 -10 -5 -10 -21z"/>
<path d="M1114 2641 c11 -13 15 -27 11 -40 -8 -25 10 -29 19 -5 7 19 -18 64
-36 64 -6 0 -3 -9 6 -19z"/>
<path d="M1202 2586 c4 -28 33 -43 52 -27 9 8 16 21 16 30 -1 14 -2 14 -11 -1
-5 -10 -16 -18 -24 -18 -8 0 -19 8 -25 18 -10 16 -11 16 -8 -2z"/>
<path d="M1106 2511 c-3 -5 4 -11 15 -14 16 -4 20 -11 16 -26 -6 -25 8 -28 17
-5 4 10 -1 25 -10 35 -19 21 -30 24 -38 10z"/>
<path d="M1261 2467 c-1 -23 -27 -33 -46 -17 -10 8 -15 9 -15 2 0 -6 10 -16
21 -23 26 -14 54 8 46 37 -4 17 -5 17 -6 1z"/>
<path d="M1302 2448 c-6 -6 -12 -17 -12 -22 0 -6 5 -4 10 4 8 13 13 13 31 2
18 -12 20 -11 17 5 -4 22 -29 28 -46 11z"/>
<path d="M1217 2383 c-4 -3 -7 -13 -7 -22 0 -11 3 -11 14 4 12 16 16 17 30 6
9 -7 16 -21 16 -29 0 -12 3 -13 11 -5 17 17 -7 53 -35 53 -12 0 -26 -3 -29 -7z"/>
<path d="M1085 2370 c-4 -7 2 -9 19 -4 26 6 31 -1 27 -33 -1 -7 3 -13 9 -13
14 0 13 33 -2 48 -15 15 -45 16 -53 2z"/>
<path d="M1350 2325 c0 -33 -28 -45 -47 -19 -14 19 -15 19 -11 -1 4 -23 42
-32 64 -15 16 14 19 46 4 55 -6 4 -10 -5 -10 -20z"/>
<path d="M3666 2723 c4 -16 13 -35 20 -43 12 -12 14 -12 14 2 0 26 -18 68 -30
68 -6 0 -8 -11 -4 -27z"/>
<path d="M3627 2684 c-13 -13 -7 -26 8 -20 25 9 18 -32 -10 -58 -30 -27 -31
-36 -7 -37 10 0 12 -3 4 -6 -7 -2 -17 -14 -23 -26 -11 -21 -10 -20 15 2 14 14
24 27 21 29 -2 3 7 18 21 35 30 36 30 80 -1 85 -12 2 -24 0 -28 -4z"/>
<path d="M1590 2429 c0 -10 28 -19 55 -19 27 0 55 9 55 19 0 3 -25 6 -55 6
-30 0 -55 -3 -55 -6z"/>
<path d="M2007 2584 c-10 -11 -8 -34 3 -34 6 0 9 3 9 8 -3 20 2 23 18 11 14
-12 16 -12 11 1 -5 17 -30 25 -41 14z"/>
<path d="M2060 2486 c-7 -19 -15 -26 -25 -22 -8 3 -15 1 -15 -4 0 -6 11 -10
25 -10 28 0 53 36 36 53 -7 7 -13 2 -21 -17z"/>
<path d="M2093 2423 c-7 -3 -13 -16 -13 -29 0 -19 5 -24 24 -24 14 0 28 5 31
11 11 16 -3 23 -19 10 -11 -9 -16 -9 -21 0 -4 6 -1 15 6 20 16 9 10 18 -8 12z"/>
<path d="M3510 2301 c0 -6 5 -13 10 -16 15 -9 12 -25 -5 -25 -8 0 -15 -4 -15
-10 0 -18 29 -11 40 9 7 15 6 23 -6 35 -18 18 -24 20 -24 7z"/>
<path d="M3548 2197 c18 -21 5 -40 -21 -33 -18 4 -19 3 -5 -10 21 -22 50 -7
46 24 -2 14 -10 28 -18 30 -13 5 -13 3 -2 -11z"/>
<path d="M2730 2096 c0 -12 -5 -16 -15 -12 -17 6 -21 -9 -4 -20 6 -3 18 1 27
10 13 12 14 19 4 28 -9 9 -12 8 -12 -6z"/>
<path d="M2742 2034 c-27 -19 -28 -36 -2 -59 11 -10 20 -13 20 -7 0 7 -4 12
-10 12 -19 0 -10 42 10 47 11 3 20 9 20 14 0 13 -13 11 -38 -7z"/>
<path d="M2652 1948 c-16 -16 -15 -33 3 -48 13 -11 14 -8 9 19 -7 35 1 39 28
14 16 -14 18 -14 18 -1 0 26 -38 36 -58 16z"/>
<path d="M2800 1905 c0 -18 -11 -19 -29 -2 -11 10 -13 9 -9 -3 7 -21 52 -19
56 3 2 9 -1 17 -7 17 -6 0 -11 -7 -11 -15z"/>
<path d="M2666 1875 c-18 -18 -19 -25 -10 -49 10 -25 20 -19 19 12 0 23 4 27
28 27 15 -1 26 4 24 10 -6 17 -43 17 -61 0z"/>
<path d="M2816 1852 c-3 -5 1 -15 9 -22 15 -12 35 -6 35 11 0 6 -5 7 -11 3 -6
-3 -15 -1 -19 6 -5 7 -10 8 -14 2z"/>
<path d="M2579 1772 c17 -31 14 -41 -16 -53 -16 -6 -23 -13 -16 -16 7 -2 21 1
33 7 16 9 20 19 18 42 -2 17 -9 33 -16 36 -11 3 -12 0 -3 -16z"/>
<path d="M2796 1776 c7 -19 -16 -32 -28 -15 -8 12 -9 11 -5 -1 6 -24 42 -18
45 8 2 12 -1 22 -7 22 -6 0 -8 -6 -5 -14z"/>
<path d="M2672 1758 c-24 -24 -8 -79 23 -78 5 0 2 5 -7 11 -34 20 -9 79 27 65
8 -3 15 -1 15 4 0 14 -44 12 -58 -2z"/>
<path d="M2765 1700 c-18 -20 -14 -70 6 -70 6 0 6 7 -1 20 -8 15 -6 24 10 40
11 11 20 22 20 25 0 11 -18 4 -35 -15z"/>
<path d="M2567 1643 c-4 -3 -7 -11 -7 -17 0 -6 4 -5 9 3 13 20 42 6 34 -16 -5
-14 -3 -16 7 -6 7 6 10 19 7 27 -6 16 -38 22 -50 9z"/>
<path d="M2680 1630 c-9 -6 -6 -9 11 -12 17 -2 25 -10 27 -27 3 -18 6 -21 12
-11 17 28 -23 67 -50 50z"/>
<path d="M2566 1554 c-4 -12 -14 -15 -33 -11 -25 5 -26 4 -9 -8 10 -8 24 -11
31 -9 14 6 29 34 21 41 -2 2 -6 -4 -10 -13z"/>
<path d="M2650 1531 c0 -29 -28 -47 -51 -33 -22 14 -26 0 -4 -18 12 -10 20 -9
40 4 14 9 25 20 25 25 0 5 3 16 6 25 3 9 1 16 -5 16 -6 0 -11 -8 -11 -19z"/>
<path d="M2758 1524 c-3 -26 -7 -29 -40 -29 -32 0 -35 -2 -24 -14 20 -20 64
-6 78 25 8 18 8 28 1 35 -8 8 -12 4 -15 -17z"/>
<path d="M2472 1474 c5 -26 35 -41 55 -28 9 6 19 17 21 25 3 9 -2 8 -16 -5
-18 -15 -24 -16 -37 -6 -8 7 -12 16 -9 21 3 5 0 9 -6 9 -6 0 -10 -7 -8 -16z"/>
<path d="M2654 1436 c-10 -8 -15 -18 -11 -22 4 -5 12 -2 18 6 8 13 12 12 24
-4 12 -16 15 -17 15 -4 0 27 -24 40 -46 24z"/>
<path d="M3390 2103 c0 -17 28 -36 45 -29 8 3 15 13 15 23 0 15 -2 15 -15 -3
-15 -19 -15 -19 -30 0 -8 11 -15 15 -15 9z"/>
<path d="M3366 2043 c6 -28 4 -32 -20 -36 l-26 -4 26 1 c38 1 54 30 31 53 -17
17 -17 16 -11 -14z"/>
<path d="M3434 2039 c-4 -8 1 -9 16 -4 20 6 22 4 17 -14 -5 -22 8 -30 15 -8
12 31 -30 54 -48 26z"/>
<path d="M3367 1953 c-4 -6 0 -19 9 -28 15 -15 18 -15 35 1 10 9 15 22 11 28
-4 7 -8 5 -10 -6 -2 -10 -10 -18 -17 -18 -7 0 -15 8 -17 18 -2 11 -6 13 -11 5z"/>
<path d="M3442 1908 c4 -31 51 -33 56 -3 3 19 2 19 -12 1 -16 -20 -41 -12 -32
10 3 8 1 14 -5 14 -6 0 -9 -10 -7 -22z"/>
<path d="M3326 1866 c4 -16 2 -26 -5 -26 -6 0 -11 -5 -11 -11 0 -8 5 -8 15 1
17 14 20 46 5 55 -7 4 -9 -2 -4 -19z"/>
<path d="M3350 1847 c0 -23 22 -38 37 -26 7 7 13 16 13 21 0 6 -7 5 -15 -2
-14 -11 -19 -7 -16 13 0 4 -3 7 -9 7 -5 0 -10 -6 -10 -13z"/>
<path d="M3432 1828 c-6 -6 -12 -23 -11 -37 l1 -26 7 25 c5 19 14 25 34 25 15
-1 26 4 24 10 -5 15 -40 18 -55 3z"/>
<path d="M3270 1762 c0 -4 5 -13 11 -19 8 -8 4 -15 -12 -27 -17 -12 -19 -16
-7 -16 26 0 41 26 28 49 -11 22 -20 27 -20 13z"/>
<path d="M3313 1741 c1 -14 7 -26 13 -28 14 -5 48 27 38 36 -4 3 -9 0 -11 -6
-7 -19 -31 -16 -37 5 -3 10 -4 7 -3 -7z"/>
<path d="M3407 1728 c-18 -10 -23 -38 -7 -38 6 0 9 6 8 13 -2 7 7 12 20 11 12
0 22 3 22 7 0 12 -26 17 -43 7z"/>
<path d="M3361 1652 c-1 -28 -26 -39 -49 -21 -15 13 -16 12 -3 -3 28 -36 69
-15 58 29 -4 14 -5 13 -6 -5z"/>
<path d="M3446 1622 c-9 -11 -14 -26 -10 -35 6 -16 33 -31 42 -22 3 2 -3 7
-12 11 -19 7 -22 40 -3 47 6 2 9 7 6 11 -3 3 -13 -2 -23 -12z"/>
<path d="M3235 1620 c-3 -5 3 -10 14 -10 11 0 25 -8 30 -17 9 -15 10 -15 11
-2 0 30 -41 52 -55 29z"/>
<path d="M3361 1550 c-2 -42 61 -56 67 -15 2 18 2 18 -8 3 -15 -25 -39 -22
-50 5 -5 12 -9 15 -9 7z"/>
<path d="M3250 1535 c-12 -14 -6 -35 10 -35 5 0 7 7 4 15 -7 17 21 21 31 5 3
-5 11 -10 17 -10 6 0 3 9 -7 20 -21 24 -38 25 -55 5z"/>
<path d="M3362 1488 c-17 -17 -15 -43 5 -59 15 -13 15 -12 4 9 -15 29 -5 45
25 39 27 -5 33 8 8 17 -22 8 -28 8 -42 -6z"/>
<path d="M3246 1446 c6 -17 -12 -31 -21 -16 -3 5 -11 10 -18 10 -7 0 -5 -7 5
-16 9 -9 24 -14 32 -11 17 7 22 47 6 47 -5 0 -7 -6 -4 -14z"/>
<path d="M3323 1408 c1 -17 -4 -24 -20 -26 -13 -2 -23 1 -23 7 0 6 -5 11 -12
11 -7 0 -2 -10 10 -22 18 -18 26 -20 40 -12 19 12 30 64 13 64 -6 0 -10 -10
-8 -22z"/>
<path d="M3413 1368 c1 -7 -6 -12 -15 -12 -21 2 -24 -12 -4 -19 16 -6 36 11
36 30 0 7 -4 13 -10 13 -5 0 -9 -6 -7 -12z"/>
<path d="M3640 1949 c0 -5 5 -7 10 -4 6 3 10 -4 10 -16 0 -18 3 -20 12 -11 8
8 8 15 -2 27 -14 17 -30 20 -30 4z"/>
<path d="M2142 1898 c-6 -6 -12 -16 -12 -22 0 -6 5 -5 12 2 17 17 36 15 42 -5
3 -11 4 -8 3 7 -2 28 -26 37 -45 18z"/>
<path d="M2234 1875 c-8 -20 4 -35 27 -35 21 0 37 26 24 38 -4 4 -10 1 -12 -5
-3 -7 -11 -13 -19 -13 -8 0 -11 6 -8 15 4 8 3 15 0 15 -4 0 -9 -7 -12 -15z"/>
<path d="M2133 1838 c4 -10 2 -18 -3 -18 -6 0 -10 -4 -10 -10 0 -16 20 -12 27
6 3 8 0 21 -7 27 -10 10 -12 8 -7 -5z"/>
<path d="M2175 1801 c-3 -5 5 -11 17 -13 16 -2 22 -9 20 -20 -2 -10 2 -18 8
-18 14 0 13 33 -2 48 -14 14 -35 16 -43 3z"/>
<path d="M2150 1762 c0 -6 5 -14 11 -18 8 -4 8 -9 0 -17 -16 -16 -13 -27 4
-21 8 4 15 14 15 24 0 10 -7 23 -15 30 -9 8 -15 9 -15 2z"/>
<path d="M2252 1718 c-15 -15 -16 -38 -2 -38 6 0 10 7 10 15 0 18 21 20 38 3
9 -9 12 -8 12 4 0 26 -38 36 -58 16z"/>
<path d="M2176 1671 c-3 -5 4 -11 15 -14 15 -4 20 -11 16 -21 -4 -9 -2 -16 3
-16 14 0 12 34 -2 48 -14 14 -25 15 -32 3z"/>
<path d="M2302 1638 c-16 -16 -15 -33 2 -47 17 -14 46 -4 46 16 0 12 -3 13
-15 3 -23 -19 -39 -1 -19 21 18 20 6 27 -14 7z"/>
<path d="M2155 1607 c17 -13 18 -17 5 -33 -13 -15 -13 -17 0 -12 23 7 19 52
-5 56 -20 4 -20 4 0 -11z"/>
<path d="M2217 1594 c-4 -4 -7 -14 -7 -23 1 -13 2 -13 11 2 10 18 11 18 31 0
20 -17 20 -17 17 2 -4 20 -38 32 -52 19z"/>
<path d="M2291 1536 c-10 -12 -9 -14 8 -9 15 4 21 1 21 -11 0 -9 5 -16 11 -16
17 0 6 44 -12 48 -9 1 -21 -4 -28 -12z"/>
<path d="M2161 1501 c20 -16 21 -21 10 -35 -8 -10 -9 -16 -3 -16 6 0 16 8 21
18 13 23 -4 52 -31 52 -19 0 -19 -1 3 -19z"/>
<path d="M2233 1454 c-7 -20 21 -49 38 -39 9 6 5 11 -12 17 -23 9 -23 10 -5
24 18 12 18 14 3 14 -10 0 -20 -7 -24 -16z"/>
<path d="M2314 1425 c-4 -8 -3 -22 0 -31 7 -17 27 -15 34 4 2 8 -2 10 -13 5
-14 -5 -16 -2 -10 15 7 25 -2 30 -11 7z"/>
<path d="M2175 1380 c5 -15 2 -26 -6 -32 -11 -7 -9 -8 6 -6 23 4 28 49 6 56
-10 3 -11 -2 -6 -18z"/>
<path d="M2227 1353 c-4 -3 -7 -18 -6 -32 l1 -26 7 25 c5 18 14 24 29 23 12
-2 22 2 22 7 0 11 -43 14 -53 3z"/>
<path d="M2310 1320 c0 -13 7 -20 20 -20 11 0 20 4 20 10 0 5 -8 6 -17 3 -12
-5 -15 -2 -10 10 3 9 2 17 -3 17 -6 0 -10 -9 -10 -20z"/>
<path d="M2154 1268 c-5 -8 -2 -9 9 -5 12 4 17 1 17 -10 0 -13 3 -14 11 -6 6
6 8 16 5 22 -9 14 -33 14 -42 -1z"/>
<path d="M2250 1265 c-10 -12 -10 -21 -2 -38 10 -21 11 -21 11 6 1 22 6 27 27
27 14 0 23 4 19 10 -9 15 -41 12 -55 -5z"/>
<path d="M2170 1200 c0 -5 6 -7 14 -4 13 5 30 -11 31 -28 0 -5 3 -8 8 -8 8 0
10 9 3 33 -4 18 -56 25 -56 7z"/>
<path d="M2283 1183 c-18 -7 -16 -38 2 -53 9 -8 15 -9 15 -2 0 6 -5 14 -10 17
-17 10 0 26 21 20 23 -8 26 10 3 19 -9 3 -16 6 -17 5 -1 0 -8 -3 -14 -6z"/>
<path d="M2204 1099 c-4 -7 0 -9 14 -5 17 6 21 2 24 -21 4 -23 6 -25 12 -10 5
9 6 24 2 32 -6 17 -42 20 -52 4z"/>
<path d="M2290 1015 c-10 -12 -10 -18 0 -30 7 -8 17 -15 23 -15 7 0 7 4 -1 12
-16 16 -15 28 3 28 8 0 15 5 15 10 0 15 -26 12 -40 -5z"/>
<path d="M2216 1012 c-5 -9 -2 -20 8 -30 15 -15 17 -15 33 1 13 13 15 20 5 29
-9 9 -12 8 -12 -5 0 -22 -18 -22 -22 1 -3 13 -5 14 -12 4z"/>
<path d="M1760 950 c0 -5 5 -10 10 -10 6 0 10 5 10 10 0 6 -4 10 -10 10 -5 0
-10 -4 -10 -10z"/>
<path d="M1270 1783 c0 -25 19 -43 45 -43 27 0 45 18 44 45 0 19 -1 19 -16 -2
-17 -26 -53 -31 -53 -9 0 8 -4 18 -10 21 -5 3 -10 -2 -10 -12z"/>
<path d="M1436 1764 c-7 -17 0 -34 13 -34 5 0 8 8 7 18 0 10 6 16 17 16 9 -1
17 2 17 7 0 16 -48 10 -54 -7z"/>
<path d="M1131 1748 c-1 -22 41 -50 63 -42 19 7 41 43 32 52 -4 3 -13 -4 -22
-16 -19 -28 -37 -28 -57 1 -13 18 -16 19 -16 5z"/>
<path d="M1381 1676 c-15 -18 -11 -58 7 -64 11 -3 11 -1 0 17 -11 17 -10 23 4
37 13 13 20 14 38 4 18 -10 21 -9 18 2 -6 19 -52 22 -67 4z"/>
<path d="M1243 1663 c-7 -2 -13 -9 -13 -15 0 -6 6 -6 15 2 19 15 38 3 32 -21
-6 -23 11 -26 19 -4 11 29 -21 52 -53 38z"/>
<path d="M1195 1627 c-7 -15 -17 -21 -34 -19 -15 2 -21 0 -17 -7 12 -19 55
-12 67 10 6 12 7 25 2 30 -5 5 -13 -1 -18 -14z"/>
<path d="M1480 1570 c0 -25 -18 -26 -36 -2 -7 9 -14 12 -14 5 0 -6 7 -19 16
-27 12 -12 20 -13 35 -6 20 11 27 50 9 50 -5 0 -10 -9 -10 -20z"/>
<path d="M1374 1542 c2 -4 1 -14 -4 -22 -7 -12 -12 -11 -31 5 -14 13 -20 15
-17 6 6 -21 33 -35 52 -28 18 7 22 47 5 47 -5 0 -8 -4 -5 -8z"/>
<path d="M1255 1508 c-12 -40 -42 -50 -47 -16 -4 21 -5 21 -13 5 -5 -12 -2
-24 8 -34 14 -15 18 -15 41 1 18 11 26 25 26 46 0 38 -4 38 -15 -2z"/>
<path d="M1367 1453 c-10 -10 -8 -53 2 -53 5 0 7 9 4 20 -4 15 0 20 16 20 11
0 21 -5 21 -11 0 -5 5 -7 10 -4 8 5 7 11 -1 21 -12 15 -41 19 -52 7z"/>
<path d="M1460 1416 c0 -27 12 -46 29 -46 20 0 41 19 41 37 0 21 -17 15 -23
-9 -5 -18 -8 -19 -22 -8 -9 7 -14 19 -11 27 3 7 1 13 -4 13 -6 0 -10 -6 -10
-14z"/>
<path d="M1227 1403 c-14 -13 -6 -25 9 -13 13 11 16 10 21 -8 5 -22 23 -31 23
-13 0 33 -33 54 -53 34z"/>
<path d="M1335 1351 c-4 -7 3 -10 17 -8 18 1 23 -3 22 -20 0 -13 3 -23 8 -23
5 0 8 12 6 28 -2 19 -9 28 -25 30 -11 2 -24 -2 -28 -7z"/>
<path d="M1537 1333 c-4 -3 -7 -14 -7 -24 0 -18 26 -33 35 -20 3 5 -2 11 -10
15 -8 3 -12 12 -9 21 6 16 2 20 -9 8z"/>
<path d="M1503 1274 c3 -37 -24 -40 -33 -4 -5 20 -7 22 -12 8 -9 -22 14 -51
37 -47 30 6 42 36 23 56 -16 16 -17 15 -15 -13z"/>
<path d="M1260 1272 c21 -17 22 -19 5 -36 -21 -20 -12 -34 10 -16 27 23 12 70
-23 70 -9 0 -6 -6 8 -18z"/>
<path d="M1336 1211 c-10 -11 -14 -25 -9 -37 6 -17 8 -16 13 6 8 33 35 38 45
8 6 -20 8 -21 12 -5 5 20 -13 47 -32 47 -6 0 -19 -8 -29 -19z"/>
<path d="M1544 1195 c-21 -32 -10 -65 22 -65 14 0 27 7 31 15 8 23 -7 33 -18
12 -6 -9 -14 -15 -20 -12 -14 9 -11 37 8 57 9 10 11 18 5 18 -6 0 -19 -11 -28
-25z"/>
<path d="M1430 1165 c-7 -9 -10 -19 -6 -23 4 -4 12 1 17 11 14 24 36 21 42 -5
4 -12 9 -19 13 -16 3 4 3 16 -1 27 -8 25 -46 28 -65 6z"/>
<path d="M1227 1154 c-4 -4 -7 -14 -7 -23 1 -14 2 -13 11 2 13 23 24 22 37 -5
l12 -23 -3 25 c-2 25 -34 40 -50 24z"/>
<path d="M1335 1080 c21 -23 13 -50 -15 -50 -11 0 -20 -4 -20 -10 0 -13 16
-13 41 0 29 16 23 80 -9 80 -13 0 -12 -3 3 -20z"/>
<path d="M1430 1091 c0 -5 8 -8 17 -7 10 0 19 -9 23 -24 6 -22 8 -23 15 -7 4
10 2 24 -5 32 -13 16 -50 21 -50 6z"/>
<path d="M1558 1058 c-12 -29 2 -49 31 -46 18 2 27 10 29 26 4 29 -14 29 -22
0 -6 -25 -22 -16 -28 17 -3 18 -4 18 -10 3z"/>
<path d="M1416 1005 c21 -21 23 -28 14 -46 -7 -11 -9 -23 -6 -26 3 -3 11 6 17
20 10 22 9 31 -5 52 -9 14 -23 25 -31 25 -9 0 -6 -8 11 -25z"/>
<path d="M1522 978 c-20 -20 -14 -33 7 -14 16 14 20 15 30 2 7 -8 10 -20 6
-26 -3 -5 -1 -10 4 -10 17 0 13 47 -5 54 -22 8 -28 8 -42 -6z"/>
<path d="M1295 960 c-3 -6 5 -10 18 -10 25 0 48 -31 28 -38 -13 -4 -5 -22 10
-22 18 0 10 59 -10 70 -25 13 -38 13 -46 0z"/>
<path d="M2926 1218 c-13 -7 -14 -13 -6 -22 12 -15 52 -16 57 -1 5 17 -31 34
-51 23z"/>
<path d="M2503 864 c-3 -8 2 -23 11 -32 15 -15 17 -15 33 1 17 17 17 17 -7 15
-19 -2 -24 1 -22 15 4 21 -7 22 -15 1z"/>
<path d="M2450 863 c0 -5 6 -15 13 -22 10 -10 7 -16 -13 -31 -17 -14 -20 -20
-9 -20 35 0 52 47 24 70 -8 7 -15 8 -15 3z"/>
<path d="M2573 794 c-7 -3 -13 -10 -13 -15 0 -6 8 -6 19 1 23 12 37 -3 32 -35
-2 -15 0 -17 9 -9 18 18 8 59 -15 61 -11 1 -26 -1 -32 -3z"/>
<path d="M2560 703 c0 -12 -5 -25 -10 -28 -13 -8 -42 14 -34 26 3 5 0 9 -5 9
-15 0 -14 -23 1 -38 19 -19 46 -14 59 9 8 15 8 24 0 32 -8 8 -11 5 -11 -10z"/>
<path d="M2413 683 c-7 -3 -13 -9 -13 -14 0 -4 7 -6 15 -3 23 9 31 -26 12 -58
-9 -15 -12 -28 -7 -28 15 0 42 60 35 80 -6 20 -23 29 -42 23z"/>
<path d="M2590 650 c0 -5 7 -10 15 -10 8 0 15 -9 15 -20 0 -14 -7 -20 -21 -20
-11 0 -17 -4 -14 -10 3 -5 10 -10 15 -10 11 0 40 29 40 40 0 11 -29 40 -41 40
-5 0 -9 -4 -9 -10z"/>
<path d="M2467 579 c-9 -6 -17 -15 -17 -21 0 -9 3 -9 12 0 22 22 41 14 34 -13
-7 -27 8 -35 18 -9 9 25 7 33 -12 43 -11 6 -24 6 -35 0z"/>
<path d="M2390 535 c0 -8 5 -15 10 -15 6 0 10 -9 10 -20 0 -25 -27 -27 -33 -2
-4 13 -5 11 -6 -5 -1 -18 4 -23 23 -23 29 0 42 30 26 60 -13 23 -30 27 -30 5z"/>
<path d="M2555 515 c-29 -28 -31 -38 -10 -55 16 -14 45 -7 45 11 0 8 -4 8 -15
-1 -27 -22 -31 18 -5 46 30 31 16 31 -15 -1z"/>
<path d="M2643 493 c-7 -3 -13 -14 -13 -26 1 -20 2 -20 11 -5 5 10 16 15 24
12 8 -4 15 -2 15 4 0 12 -21 21 -37 15z"/>
<path d="M2463 473 c-21 -8 -15 -22 7 -16 14 4 20 0 20 -11 0 -9 -5 -16 -11
-16 -5 0 -7 -5 -3 -11 4 -7 12 -6 23 5 24 25 -4 63 -36 49z"/>
<path d="M2376 411 c-3 -5 4 -11 16 -14 21 -6 21 -7 3 -27 -10 -11 -14 -20 -9
-20 14 0 34 22 34 37 0 16 -37 36 -44 24z"/>
<path d="M2607 391 c6 -24 -13 -36 -32 -21 -10 8 -15 9 -15 2 0 -6 10 -14 21
-17 26 -8 54 16 46 39 -9 23 -26 20 -20 -3z"/>
<path d="M2447 373 c-4 -3 -7 -15 -7 -25 0 -10 -7 -21 -15 -24 -25 -10 -17
-22 11 -16 20 3 26 0 31 -17 3 -11 9 -21 14 -21 17 0 9 29 -13 50 -17 15 -19
23 -10 32 8 8 15 8 27 -2 18 -15 21 0 3 18 -13 13 -31 16 -41 5z"/>
<path d="M2527 343 c-4 -3 -7 -13 -7 -20 0 -12 3 -11 16 2 18 18 30 11 36 -20
5 -18 6 -19 13 -2 13 30 -35 64 -58 40z"/>
<path d="M2615 321 c-4 -7 0 -8 11 -4 14 5 16 2 11 -16 -3 -14 -1 -21 6 -18
18 6 14 41 -5 45 -9 2 -19 -2 -23 -7z"/>
<path d="M3207 823 c-11 -10 -8 -41 5 -49 8 -5 9 -2 5 10 -10 25 2 40 19 25
16 -13 30 -6 19 10 -7 12 -38 15 -48 4z"/>
<path d="M3086 791 c-14 -15 -15 -24 -6 -40 6 -12 18 -21 27 -21 15 0 14 2 -2
14 -23 17 -13 46 15 46 12 0 18 5 15 10 -10 16 -30 12 -49 -9z"/>
<path d="M3294 795 c-7 -17 12 -45 31 -45 16 0 40 28 31 37 -4 4 -11 1 -16 -6
-11 -19 -41 -6 -34 14 3 8 3 15 0 15 -4 0 -9 -7 -12 -15z"/>
<path d="M3162 738 c-16 -16 -15 -33 2 -47 11 -9 12 -6 8 15 -4 25 -3 26 22
22 17 -4 25 -1 23 6 -5 16 -40 19 -55 4z"/>
<path d="M3290 694 c0 -14 -3 -14 -15 -4 -9 7 -18 11 -20 8 -10 -10 25 -30 40
-24 17 6 21 36 5 36 -5 0 -10 -7 -10 -16z"/>
<path d="M3067 693 c-12 -12 -7 -22 8 -17 8 4 15 1 15 -6 0 -6 5 -8 10 -5 8 5
7 11 -1 21 -13 15 -22 18 -32 7z"/>
<path d="M3195 640 c20 -22 13 -36 -20 -42 -18 -3 -18 -4 -3 -10 10 -4 26 0
39 11 18 15 20 21 10 39 -6 12 -19 22 -28 22 -14 0 -14 -2 2 -20z"/>
<path d="M3084 614 c7 -19 -12 -47 -25 -38 -5 3 -7 10 -4 15 4 5 1 9 -4 9 -17
0 -13 -30 4 -36 8 -4 22 -1 30 6 17 14 20 60 4 60 -6 0 -8 -7 -5 -16z"/>
<path d="M3300 586 c0 -30 -8 -33 -26 -8 -7 9 -14 12 -14 6 0 -18 28 -37 45
-30 17 6 20 41 5 51 -6 4 -10 -5 -10 -19z"/>
<path d="M3135 560 c-3 -5 1 -13 9 -16 23 -9 20 -23 -6 -34 -23 -10 -23 -10 2
-7 17 1 26 9 28 23 3 24 -22 51 -33 34z"/>
<path d="M3211 537 c-14 -14 -15 -37 -1 -37 5 0 7 7 4 15 -7 17 21 21 31 5 9
-14 28 -13 23 2 -6 17 -44 28 -57 15z"/>
<path d="M3078 498 c15 -15 16 -38 1 -38 -7 0 -18 8 -25 18 -7 9 -14 12 -14 5
0 -18 29 -43 45 -37 30 12 24 64 -8 64 -7 0 -7 -4 1 -12z"/>
<path d="M3005 450 c19 -21 19 -22 1 -36 -11 -7 -17 -17 -13 -20 4 -4 14 -1
22 6 22 18 15 64 -10 69 -20 3 -20 3 0 -19z"/>
<path d="M3167 453 c-4 -3 -7 -16 -6 -27 0 -20 1 -20 9 2 10 25 20 28 38 10
13 -13 27 -5 17 11 -7 12 -48 15 -58 4z"/>
<path d="M3276 418 c-6 -23 -6 -23 -22 -3 -16 20 -16 20 -12 0 6 -38 57 -27
58 13 0 21 -17 13 -24 -10z"/>
<path d="M3042 388 c-16 -16 -15 -43 3 -58 17 -14 21 0 4 17 -15 15 -3 33 22
33 11 0 17 5 14 10 -8 14 -28 13 -43 -2z"/>
<path d="M3130 365 c0 -10 7 -15 18 -13 13 2 17 -4 17 -24 -1 -31 9 -37 19
-12 9 24 8 31 -10 48 -20 20 -44 21 -44 1z"/>
<path d="M3216 332 c-11 -18 17 -47 38 -39 9 4 16 17 15 29 l0 23 -9 -22 c-5
-13 -14 -23 -19 -23 -5 0 -11 10 -13 23 -2 16 -5 19 -12 9z"/>
<path d="M3040 272 c0 -16 -7 -35 -15 -42 -12 -10 -16 -8 -23 11 -6 15 -11 19
-16 10 -22 -34 28 -56 58 -25 18 17 21 60 6 69 -6 4 -10 -6 -10 -23z"/>
<path d="M3086 262 c-11 -19 16 -45 37 -36 9 3 17 13 17 22 0 12 -3 13 -12 4
-17 -17 -26 -15 -30 6 -3 13 -5 14 -12 4z"/>
<path d="M3166 239 c-8 -12 -12 -28 -9 -35 8 -22 22 -16 16 6 -6 24 21 37 42
20 18 -15 20 1 3 18 -18 18 -35 15 -52 -9z"/>
<path d="M3247 188 c-5 -18 -8 -19 -22 -8 -8 7 -18 11 -20 8 -3 -3 1 -11 10
-18 20 -16 45 -6 45 20 0 26 -6 26 -13 -2z"/>
<path d="M2870 665 c0 -15 4 -24 10 -20 6 3 10 12 10 20 0 8 -4 17 -10 20 -6
4 -10 -5 -10 -20z"/>
<path d="M4050 749 c0 -5 5 -7 10 -4 6 3 10 8 10 11 0 2 -4 4 -10 4 -5 0 -10
-5 -10 -11z"/>
<path d="M1235 521 c-3 -5 -2 -12 3 -15 5 -3 9 1 9 9 0 17 -3 19 -12 6z"/>
<path d="M1597 503 c-12 -11 -8 -40 7 -52 19 -16 56 2 56 27 -1 16 -2 16 -14
0 -20 -27 -39 -23 -34 7 5 24 -2 32 -15 18z"/>
<path d="M1500 485 c-14 -17 -7 -45 11 -45 9 0 9 4 0 14 -8 9 -8 16 -2 20 5 4
12 2 16 -4 3 -5 10 -10 16 -10 16 0 10 19 -10 29 -14 8 -22 7 -31 -4z"/>
<path d="M2106 483 c-3 -3 -1 -12 5 -19 9 -10 7 -15 -5 -20 -9 -3 -16 -10 -16
-15 0 -6 9 -5 20 1 11 6 20 19 20 30 0 20 -13 33 -24 23z"/>
<path d="M1420 467 c18 -10 24 -20 23 -40 -1 -15 2 -27 7 -27 8 0 20 24 20 40
0 16 -32 40 -53 40 -21 0 -21 -1 3 -13z"/>
<path d="M1676 425 c-7 -19 20 -46 39 -39 8 4 15 13 15 22 0 12 -3 13 -12 4
-18 -18 -31 -14 -25 8 6 23 -8 27 -17 5z"/>
<path d="M2140 432 c0 -5 5 -13 11 -19 16 -16 1 -35 -23 -27 -14 4 -18 2 -14
-5 10 -16 53 -13 60 4 3 8 3 21 0 29 -6 16 -34 30 -34 18z"/>
<path d="M1572 388 c-15 -15 -16 -45 -2 -53 6 -3 10 5 10 19 0 30 16 42 36 25
16 -13 30 -6 19 10 -8 15 -48 14 -63 -1z"/>
<path d="M1463 346 c10 -8 22 -27 27 -43 l8 -28 1 32 c1 22 -5 36 -18 43 -28
14 -39 12 -18 -4z"/>
<path d="M2057 354 c-3 -3 1 -13 9 -21 8 -9 18 -12 21 -9 4 4 0 13 -8 21 -8 9
-18 13 -22 9z"/>
<path d="M2210 338 c0 -26 27 -43 45 -28 8 7 15 20 15 28 0 13 -3 12 -15 -4
-15 -19 -15 -19 -30 0 -12 16 -15 17 -15 4z"/>
<path d="M1661 282 c-6 -12 -11 -25 -11 -31 0 -15 33 -14 48 1 15 15 16 38 2
38 -5 0 -10 -7 -10 -15 0 -8 -7 -15 -16 -15 -14 0 -14 3 -4 15 7 9 10 18 7 21
-3 3 -10 -3 -16 -14z"/>
<path d="M2124 285 c-8 -20 2 -45 18 -45 9 0 9 3 0 12 -16 16 -15 28 3 28 8 0
15 5 15 10 0 16 -30 12 -36 -5z"/>
<path d="M1530 265 c-7 -9 -9 -22 -5 -32 7 -17 8 -16 13 2 7 34 20 40 42 20
17 -15 20 -16 20 -3 0 28 -50 37 -70 13z"/>
<path d="M2063 246 c19 -14 23 -36 7 -36 -5 0 -10 -5 -10 -11 0 -8 5 -8 15 1
20 16 19 46 -1 54 -25 10 -30 6 -11 -8z"/>
<path d="M2227 200 c-7 -24 -8 -24 -22 -6 -13 18 -15 18 -15 3 0 -21 27 -34
42 -19 5 5 8 18 6 28 -3 16 -5 15 -11 -6z"/>
<path d="M1595 184 c-8 -9 -15 -21 -15 -27 0 -7 7 -4 14 6 18 24 40 22 33 -3
-6 -24 8 -37 17 -15 13 36 -23 65 -49 39z"/>
<path d="M1690 141 c-5 -11 -10 -26 -10 -33 1 -7 8 0 16 16 16 28 16 28 30 7
21 -30 38 -26 18 4 -20 30 -40 32 -54 6z"/>
<path d="M2123 153 c-7 -2 -12 -14 -12 -26 1 -17 2 -18 6 -4 3 11 14 17 31 17
21 0 24 2 12 10 -16 11 -19 11 -37 3z"/>
<path d="M2056 135 c16 -13 17 -16 4 -25 -13 -8 -13 -10 1 -10 9 0 19 6 22 14
6 16 -11 36 -32 36 -11 0 -10 -4 5 -15z"/>
<path d="M1550 115 c7 -8 10 -25 6 -40 -8 -30 -1 -33 14 -5 12 22 -2 60 -22
60 -7 0 -6 -5 2 -15z"/>
<path d="M1615 87 c-9 -8 -15 -22 -13 -33 4 -21 29 -26 36 -6 2 7 -2 10 -12 6
-9 -3 -16 -1 -16 5 0 7 10 15 22 20 12 4 17 11 11 14 -5 4 -18 1 -28 -6z"/>
<path d="M1985 49 c-4 -6 -1 -10 6 -8 30 4 41 -1 35 -16 -3 -8 -1 -15 4 -15
14 0 12 24 -2 38 -15 15 -35 15 -43 1z"/>
<path d="M2750 49 c0 -5 5 -7 10 -4 6 3 10 8 10 11 0 2 -4 4 -10 4 -5 0 -10
-5 -10 -11z"/>
<path d="M2120 25 c0 -18 -26 -20 -33 -2 -3 7 -6 4 -6 -6 -1 -25 52 -20 57 6
2 9 -1 17 -7 17 -6 0 -11 -7 -11 -15z"/>
<path d="M1680 10 c-11 -7 -7 -10 18 -10 20 0 31 4 27 10 -8 13 -26 13 -45 0z"/>
<path d="M3778 3 c6 -2 18 -2 25 0 6 3 1 5 -13 5 -14 0 -19 -2 -12 -5z"/>
</g>
</svg>
